<svg width="46" height="47" viewBox="0 0 46 47" fill="none" xmlns="http://www.w3.org/2000/svg">
<path d="M40.6786 0.949707H5.32143C4.04271 0.949707 2.81636 1.46363 1.91216 2.37842C1.00797 3.29321 0.5 4.53393 0.5 5.82764L0.5 41.5991C0.5 42.8928 1.00797 44.1335 1.91216 45.0483C2.81636 45.9631 4.04271 46.4771 5.32143 46.4771H19.1077V30.9988H12.7796V23.7134H19.1077V18.1607C19.1077 11.8448 22.8242 8.35603 28.5165 8.35603C31.2426 8.35603 34.0933 8.84789 34.0933 8.84789V15.0469H30.9523C27.8576 15.0469 26.8923 16.99 26.8923 18.9828V23.7134H33.801L32.6961 30.9988H26.8923V46.4771H40.6786C41.9573 46.4771 43.1836 45.9631 44.0878 45.0483C44.992 44.1335 45.5 42.8928 45.5 41.5991V5.82764C45.5 4.53393 44.992 3.29321 44.0878 2.37842C43.1836 1.46363 41.9573 0.949707 40.6786 0.949707Z" fill="white"/>
</svg>
