<svg width="46" height="46" viewBox="0 0 46 46" fill="none" xmlns="http://www.w3.org/2000/svg">
<path d="M23 17.3358C21.9404 17.3362 20.9047 17.6519 20.0239 18.2431C19.1431 18.8342 18.4567 19.6742 18.0515 20.6568C17.6462 21.6395 17.5404 22.7207 17.7474 23.7637C17.9543 24.8067 18.4648 25.7647 19.2142 26.5165C19.9636 27.2684 20.9182 27.7803 21.9575 27.9877C22.9967 28.195 24.0739 28.0884 25.0528 27.6813C26.0317 27.2742 26.8684 26.585 27.457 25.7007C28.0456 24.8164 28.3598 23.7768 28.3598 22.7133C28.3588 21.2871 27.7937 19.9196 26.7887 18.9113C25.7837 17.903 24.421 17.3364 23 17.3358ZM35.5267 13.2024C35.2539 12.5086 34.842 11.8785 34.3166 11.3511C33.7911 10.8237 33.1633 10.4103 32.4721 10.1366C30.3627 9.30081 25.3404 9.48833 23 9.48833C20.6596 9.48833 15.6423 9.29376 13.5269 10.1366C12.8357 10.4103 12.2079 10.8237 11.6824 11.3511C11.157 11.8785 10.7451 12.5086 10.4723 13.2024C9.64062 15.3195 9.82645 20.3653 9.82645 22.7123C9.82645 25.0593 9.64062 30.0991 10.4763 32.2233C10.7491 32.9171 11.161 33.5472 11.6864 34.0746C12.2119 34.6019 12.8397 35.0153 13.5309 35.2891C15.6403 36.1249 20.6626 35.9373 23.004 35.9373C25.3454 35.9373 30.3607 36.1319 32.4761 35.2891C33.1673 35.0153 33.7952 34.6019 34.3206 34.0746C34.8461 33.5472 35.2579 32.9171 35.5307 32.2233C36.3694 30.1062 36.1766 25.0603 36.1766 22.7133C36.1766 20.3663 36.3694 15.3276 35.5307 13.2034L35.5267 13.2024ZM23 30.9802C21.371 30.9802 19.7785 30.4954 18.424 29.587C17.0695 28.6786 16.0138 27.3875 15.3904 25.8769C14.767 24.3664 14.6038 22.7042 14.9217 21.1005C15.2395 19.4969 16.0239 18.0239 17.1758 16.8678C18.3277 15.7116 19.7954 14.9243 21.3931 14.6053C22.9909 14.2863 24.647 14.45 26.152 15.0757C27.6571 15.7014 28.9434 16.761 29.8485 18.1205C30.7535 19.48 31.2366 21.0783 31.2366 22.7133C31.2379 23.7993 31.0258 24.8749 30.6123 25.8785C30.1989 26.8821 29.5922 27.794 28.8271 28.5619C28.062 29.3298 27.1535 29.9387 26.1536 30.3536C25.1537 30.7686 24.082 30.9816 23 30.9802ZM31.5761 16.0293C31.1958 16.0295 30.824 15.9165 30.5077 15.7045C30.1914 15.4926 29.9449 15.1913 29.7992 14.8388C29.6535 14.4862 29.6153 14.0982 29.6894 13.7238C29.7635 13.3494 29.9465 13.0055 30.2153 12.7356C30.4841 12.4656 30.8267 12.2817 31.1997 12.2072C31.5726 12.1326 31.9592 12.1708 32.3106 12.3168C32.662 12.4628 32.9623 12.7102 33.1736 13.0275C33.3849 13.3448 33.4977 13.718 33.4977 14.0996C33.4987 14.3531 33.4499 14.6043 33.354 14.8388C33.2581 15.0733 33.1171 15.2864 32.9389 15.4661C32.7608 15.6457 32.549 15.7883 32.3159 15.8857C32.0827 15.983 31.8327 16.0332 31.5801 16.0333L31.5761 16.0293ZM40.6786 0.130615H5.32143C4.04271 0.130615 2.81636 0.640453 1.91216 1.54797C1.00797 2.45549 0.5 3.68635 0.5 4.96977L0.5 40.4569C0.5 41.7403 1.00797 42.9712 1.91216 43.8787C2.81636 44.7862 4.04271 45.2961 5.32143 45.2961H40.6786C41.9573 45.2961 43.1836 44.7862 44.0878 43.8787C44.992 42.9712 45.5 41.7403 45.5 40.4569V4.96977C45.5 3.68635 44.992 2.45549 44.0878 1.54797C43.1836 0.640453 41.9573 0.130615 40.6786 0.130615ZM38.9589 29.3672C38.8294 31.9511 38.2417 34.2406 36.3624 36.1218C34.483 38.003 32.2039 38.6049 29.6325 38.7279C26.9797 38.8781 19.0263 38.8781 16.3735 38.7279C13.7991 38.5979 11.526 38.0071 9.64364 36.1218C7.76127 34.2366 7.16964 31.946 7.0471 29.3672C6.89743 26.7036 6.89743 18.72 7.0471 16.0595C7.17667 13.4756 7.75725 11.1861 9.64364 9.30485C11.53 7.42362 13.8092 6.82881 16.3735 6.70582C19.0263 6.5556 26.9797 6.5556 29.6325 6.70582C32.2069 6.83587 34.4871 7.42665 36.3624 9.3119C38.2377 11.1972 38.8364 13.4877 38.9589 16.0716C39.1086 18.7251 39.1086 26.7016 38.9589 29.3672Z" fill="white"/>
</svg>
