<svg width="46" height="46" viewBox="0 0 46 46" fill="none" xmlns="http://www.w3.org/2000/svg">
<path d="M40.6786 0.356445H5.32143C2.6596 0.356445 0.5 2.50232 0.5 5.14723V40.2796C0.5 42.9246 2.6596 45.0704 5.32143 45.0704H40.6786C43.3404 45.0704 45.5 42.9246 45.5 40.2796V5.14723C45.5 2.50232 43.3404 0.356445 40.6786 0.356445ZM35.7667 16.206C35.7868 16.4854 35.7868 16.7749 35.7868 17.0543C35.7868 25.7077 29.1574 35.6785 17.0435 35.6785C13.3069 35.6785 9.84152 34.6006 6.92857 32.7441C7.46094 32.804 7.97321 32.824 8.51562 32.824C11.5993 32.824 14.4319 31.786 16.692 30.0294C13.7991 29.9695 11.3683 28.0831 10.5346 25.4881C11.5491 25.6378 12.4632 25.6378 13.5078 25.3683C10.4944 24.7595 8.23437 22.1246 8.23437 18.9407V18.8608C9.10826 19.3499 10.1328 19.6493 11.2076 19.6893C10.304 19.092 9.56326 18.2818 9.05148 17.3309C8.53969 16.3801 8.27278 15.3181 8.27455 14.2397C8.27455 13.0221 8.59598 11.9042 9.16853 10.9361C12.4129 14.9085 17.2846 17.5035 22.7489 17.7829C21.8147 13.3415 25.1596 9.7384 29.1775 9.7384C31.0759 9.7384 32.7835 10.5269 33.9888 11.8044C35.4754 11.525 36.9018 10.976 38.1674 10.2275C37.6752 11.7445 36.6406 13.0221 35.2746 13.8305C36.6004 13.6908 37.8862 13.3215 39.0714 12.8125C38.1775 14.12 37.0525 15.2777 35.7667 16.206Z" fill="white"/>
</svg>
